<mxfile host="app.diagrams.net" agent="Mozilla/5.0 (Windows NT 10.0; Win64; x64) AppleWebKit/537.36 (KHTML, like Gecko) Chrome/135.0.0.0 Safari/537.36 Edg/135.0.0.0" version="26.0.11">
  <diagram name="Page-1" id="7zJZmOxAxdX9orDU6LLR">
    <mxGraphModel dx="786" dy="455" grid="1" gridSize="10" guides="1" tooltips="1" connect="1" arrows="1" fold="1" page="1" pageScale="1" pageWidth="827" pageHeight="1169" math="0" shadow="0">
      <root>
        <mxCell id="0" />
        <mxCell id="1" parent="0" />
        <mxCell id="iLMBjl5dZozVXUbi8H4f-4" style="edgeStyle=orthogonalEdgeStyle;rounded=0;orthogonalLoop=1;jettySize=auto;html=1;entryX=0;entryY=0.25;entryDx=0;entryDy=0;" edge="1" parent="1" source="iLMBjl5dZozVXUbi8H4f-1" target="iLMBjl5dZozVXUbi8H4f-2">
          <mxGeometry relative="1" as="geometry">
            <Array as="points">
              <mxPoint x="210" y="245" />
              <mxPoint x="210" y="245" />
            </Array>
          </mxGeometry>
        </mxCell>
        <mxCell id="iLMBjl5dZozVXUbi8H4f-1" value="&lt;font face=&quot;Times New Roman&quot;&gt;&lt;span style=&quot;font-size: 14px;&quot;&gt;Сервер&lt;/span&gt;&lt;/font&gt;" style="rounded=0;whiteSpace=wrap;html=1;" vertex="1" parent="1">
          <mxGeometry x="60" y="230" width="120" height="60" as="geometry" />
        </mxCell>
        <mxCell id="iLMBjl5dZozVXUbi8H4f-3" style="edgeStyle=orthogonalEdgeStyle;rounded=0;orthogonalLoop=1;jettySize=auto;html=1;entryX=1;entryY=0.75;entryDx=0;entryDy=0;" edge="1" parent="1" source="iLMBjl5dZozVXUbi8H4f-2" target="iLMBjl5dZozVXUbi8H4f-1">
          <mxGeometry relative="1" as="geometry">
            <Array as="points">
              <mxPoint x="280" y="275" />
              <mxPoint x="280" y="275" />
            </Array>
          </mxGeometry>
        </mxCell>
        <mxCell id="iLMBjl5dZozVXUbi8H4f-2" value="&lt;font face=&quot;Times New Roman&quot;&gt;&lt;span style=&quot;font-size: 14px;&quot;&gt;Клиент&lt;/span&gt;&lt;/font&gt;" style="rounded=0;whiteSpace=wrap;html=1;" vertex="1" parent="1">
          <mxGeometry x="300" y="230" width="120" height="60" as="geometry" />
        </mxCell>
        <mxCell id="iLMBjl5dZozVXUbi8H4f-5" value="websocket" style="text;html=1;align=center;verticalAlign=middle;whiteSpace=wrap;rounded=0;" vertex="1" parent="1">
          <mxGeometry x="210" y="210" width="60" height="30" as="geometry" />
        </mxCell>
      </root>
    </mxGraphModel>
  </diagram>
</mxfile>
